<?xml version="1.0" encoding="UTF-8" standalone="no"?><!DOCTYPE svg PUBLIC "-//W3C//DTD SVG 1.1//EN" "http://www.w3.org/Graphics/SVG/1.1/DTD/svg11.dtd"><svg width="3625" height="934" viewBox="0 0 3625 934" version="1.1" xmlns="http://www.w3.org/2000/svg" xmlns:xlink="http://www.w3.org/1999/xlink" xml:space="preserve" xmlns:serif="http://www.serif.com/" style="fill-rule:evenodd;clip-rule:evenodd;stroke-linecap:round;stroke-linejoin:round;stroke-miterlimit:1.5;"><g transform="matrix(49.916,0,0,49.916,-58799,-57560.2)"><path d="M1181.33,1161.25c-0.654,0 -1.23,-0.147 -1.728,-0.441c-0.497,-0.293 -0.883,-0.711 -1.157,-1.252c-0.274,-0.541 -0.411,-1.165 -0.411,-1.873c0,-0.714 0.164,-1.327 0.491,-1.838c0.328,-0.511 0.757,-0.896 1.287,-1.157c0.531,-0.26 1.097,-0.39 1.698,-0.39c0.468,0 0.909,0.041 1.323,0.125c0.414,0.083 0.774,0.198 1.081,0.345c-0.073,0.381 -0.11,0.899 -0.11,1.553c-0.16,0.06 -0.337,0.09 -0.531,0.09c-0.02,-0.648 -0.175,-1.093 -0.466,-1.337c-0.29,-0.244 -0.696,-0.366 -1.217,-0.366c-0.547,0 -1.008,0.127 -1.382,0.381c-0.374,0.254 -0.653,0.589 -0.836,1.007c-0.184,0.417 -0.276,0.873 -0.276,1.367c0,0.621 0.092,1.18 0.276,1.678c0.183,0.497 0.457,0.891 0.821,1.182c0.364,0.29 0.81,0.435 1.337,0.435c0.214,0 0.398,-0.011 0.551,-0.035c0.154,-0.023 0.307,-0.065 0.461,-0.125c0.127,-0.053 0.215,-0.132 0.265,-0.235c0.051,-0.104 0.076,-0.276 0.076,-0.516l0,-0.501c0,-0.32 -0.019,-0.546 -0.055,-0.676c-0.037,-0.13 -0.112,-0.215 -0.226,-0.256c-0.113,-0.04 -0.307,-0.063 -0.581,-0.07c-0.04,-0.1 -0.06,-0.253 -0.06,-0.46c0.254,0.02 0.661,0.03 1.222,0.03c0.501,0 0.892,-0.007 1.172,-0.02c0,0.193 -0.02,0.344 -0.06,0.45c-0.147,0.007 -0.25,0.032 -0.311,0.075c-0.06,0.044 -0.101,0.132 -0.125,0.266c-0.023,0.133 -0.035,0.354 -0.035,0.661l0,0.451c0,0.153 0.009,0.285 0.025,0.395c0.017,0.111 0.052,0.212 0.105,0.306c-0.307,0.227 -0.686,0.409 -1.136,0.546c-0.451,0.137 -0.947,0.205 -1.488,0.205Z" style="fill:#e9e8e4;fill-rule:nonzero;"/><path d="M1188.37,1160.11c0.053,0.034 0.105,0.08 0.155,0.141c0.05,0.06 0.079,0.116 0.085,0.17c-0.227,0.294 -0.486,0.506 -0.776,0.636c-0.291,0.13 -0.626,0.195 -1.007,0.195c-0.461,0 -0.85,-0.105 -1.167,-0.315c-0.317,-0.211 -0.556,-0.496 -0.716,-0.857c-0.16,-0.36 -0.24,-0.764 -0.24,-1.212c0,-0.434 0.085,-0.831 0.255,-1.192c0.17,-0.36 0.412,-0.649 0.726,-0.866c0.314,-0.217 0.678,-0.326 1.092,-0.326c0.608,0 1.06,0.189 1.357,0.566c0.298,0.377 0.47,0.88 0.516,1.508c-0.026,0.133 -0.076,0.247 -0.15,0.34c-1.175,0 -2.11,0.017 -2.805,0.05c0.034,0.515 0.162,0.934 0.386,1.257c0.224,0.324 0.579,0.486 1.067,0.486c0.227,0 0.447,-0.05 0.661,-0.15c0.214,-0.1 0.401,-0.244 0.561,-0.431Zm-1.683,-3.145c-0.267,0 -0.494,0.114 -0.681,0.341c-0.187,0.227 -0.294,0.607 -0.321,1.142l1.924,0c0,-0.448 -0.082,-0.807 -0.246,-1.077c-0.163,-0.271 -0.389,-0.406 -0.676,-0.406Z" style="fill:#e9e8e4;fill-rule:nonzero;"/><path d="M1194.02,1160.76c0.034,0.101 0.05,0.244 0.05,0.431c-0.287,-0.02 -0.651,-0.03 -1.091,-0.03c-0.274,0 -0.605,0.007 -0.992,0.02c-0.047,0.007 -0.114,0.01 -0.2,0.01c0,-0.194 0.016,-0.337 0.05,-0.431c0.247,0 0.424,-0.063 0.531,-0.19c0.106,-0.127 0.16,-0.354 0.16,-0.681l0,-1.523c0,-0.44 -0.082,-0.754 -0.246,-0.941c-0.163,-0.187 -0.392,-0.281 -0.686,-0.281c-0.187,0 -0.367,0.057 -0.541,0.171c-0.173,0.113 -0.315,0.297 -0.425,0.551c-0.111,0.253 -0.166,0.571 -0.166,0.951l0,1.072c0,0.334 0.05,0.563 0.151,0.686c0.1,0.124 0.28,0.185 0.541,0.185c0.033,0.101 0.05,0.244 0.05,0.431c-0.561,-0.02 -0.959,-0.03 -1.192,-0.03c-0.508,0 -0.905,0.01 -1.192,0.03c0,-0.194 0.016,-0.337 0.05,-0.431c0.26,0 0.44,-0.061 0.541,-0.185c0.1,-0.123 0.15,-0.352 0.15,-0.686l0,-1.983c0,-0.174 -0.019,-0.309 -0.055,-0.406c-0.037,-0.097 -0.109,-0.17 -0.216,-0.22c-0.106,-0.051 -0.267,-0.079 -0.48,-0.086c0,-0.153 0.03,-0.277 0.09,-0.37c0.207,-0.014 0.444,-0.054 0.711,-0.12c0.267,-0.067 0.477,-0.141 0.631,-0.221c0.147,0.047 0.22,0.194 0.22,0.441c0,0.214 -0.023,0.411 -0.07,0.591c0.014,-0.02 0.032,-0.055 0.055,-0.105c0.024,-0.05 0.055,-0.102 0.095,-0.155c0.134,-0.187 0.329,-0.354 0.586,-0.501c0.258,-0.147 0.546,-0.221 0.867,-0.221c0.421,0 0.765,0.131 1.032,0.391c0.267,0.26 0.4,0.674 0.4,1.242l0,1.723c0,0.334 0.047,0.563 0.141,0.686c0.093,0.124 0.243,0.185 0.45,0.185Z" style="fill:#e9e8e4;fill-rule:nonzero;"/><path d="M1197.7,1160.11c0.054,0.034 0.106,0.08 0.156,0.141c0.05,0.06 0.078,0.116 0.085,0.17c-0.227,0.294 -0.486,0.506 -0.776,0.636c-0.291,0.13 -0.626,0.195 -1.007,0.195c-0.461,0 -0.85,-0.105 -1.167,-0.315c-0.317,-0.211 -0.556,-0.496 -0.716,-0.857c-0.161,-0.36 -0.241,-0.764 -0.241,-1.212c0,-0.434 0.085,-0.831 0.256,-1.192c0.17,-0.36 0.412,-0.649 0.726,-0.866c0.314,-0.217 0.678,-0.326 1.092,-0.326c0.608,0 1.06,0.189 1.357,0.566c0.297,0.377 0.469,0.88 0.516,1.508c-0.027,0.133 -0.077,0.247 -0.15,0.34c-1.176,0 -2.11,0.017 -2.805,0.05c0.033,0.515 0.162,0.934 0.386,1.257c0.223,0.324 0.579,0.486 1.066,0.486c0.227,0 0.448,-0.05 0.662,-0.15c0.213,-0.1 0.4,-0.244 0.56,-0.431Zm-1.682,-3.145c-0.267,0 -0.494,0.114 -0.681,0.341c-0.187,0.227 -0.294,0.607 -0.321,1.142l1.923,0c0,-0.448 -0.082,-0.807 -0.245,-1.077c-0.164,-0.271 -0.389,-0.406 -0.676,-0.406Z" style="fill:#e9e8e4;fill-rule:nonzero;"/><path d="M1200.99,1156.57c0.254,0 0.484,0.081 0.691,0.241c-0.047,0.307 -0.07,0.701 -0.07,1.182c-0.18,0.06 -0.371,0.09 -0.571,0.09c-0.013,-0.301 -0.062,-0.506 -0.145,-0.616c-0.084,-0.11 -0.199,-0.165 -0.346,-0.165c-0.12,0 -0.247,0.065 -0.38,0.195c-0.134,0.13 -0.246,0.305 -0.336,0.526c-0.09,0.22 -0.135,0.454 -0.135,0.701l0,0.962c0,0.287 0.03,0.505 0.09,0.656c0.06,0.15 0.152,0.253 0.275,0.31c0.124,0.057 0.299,0.092 0.526,0.105c0.034,0.094 0.05,0.237 0.05,0.431c-0.307,-0.02 -0.727,-0.03 -1.262,-0.03c-0.621,0 -1.061,0.01 -1.322,0.03c0,-0.194 0.017,-0.337 0.05,-0.431c0.267,-0.013 0.449,-0.078 0.546,-0.195c0.097,-0.117 0.145,-0.342 0.145,-0.676l0,-1.983c0,-0.174 -0.018,-0.309 -0.055,-0.406c-0.036,-0.097 -0.108,-0.17 -0.215,-0.22c-0.107,-0.051 -0.267,-0.079 -0.481,-0.086c0,-0.153 0.03,-0.277 0.09,-0.37c0.207,-0.014 0.444,-0.054 0.711,-0.12c0.268,-0.067 0.478,-0.141 0.631,-0.221c0.147,0.047 0.221,0.194 0.221,0.441c0,0.227 -0.02,0.439 -0.06,0.636c-0.04,0.197 -0.064,0.312 -0.07,0.346c0.013,-0.04 0.04,-0.121 0.08,-0.241c0.04,-0.12 0.083,-0.213 0.13,-0.28c0.341,-0.541 0.745,-0.812 1.212,-0.812Z" style="fill:#e9e8e4;fill-rule:nonzero;"/><path d="M1205.44,1159.69c0,0.207 0.016,0.362 0.046,0.465c0.03,0.104 0.088,0.179 0.175,0.226c0.087,0.047 0.22,0.077 0.401,0.09c0,0.194 -0.02,0.347 -0.061,0.461c-0.167,0.013 -0.352,0.048 -0.555,0.105c-0.204,0.057 -0.383,0.125 -0.536,0.205c-0.081,-0.033 -0.141,-0.095 -0.181,-0.185c-0.04,-0.09 -0.06,-0.225 -0.06,-0.406c0,-0.113 0.004,-0.2 0.01,-0.26c-0.08,0.193 -0.197,0.357 -0.35,0.491c-0.261,0.227 -0.615,0.34 -1.062,0.34c-0.414,0 -0.733,-0.093 -0.957,-0.28c-0.223,-0.187 -0.335,-0.448 -0.335,-0.782c0,-0.394 0.143,-0.709 0.43,-0.946c0.288,-0.237 0.608,-0.406 0.962,-0.506c0.354,-0.1 0.745,-0.18 1.172,-0.24c0,-0.408 -0.013,-0.69 -0.04,-0.847c-0.027,-0.157 -0.084,-0.289 -0.17,-0.396c-0.161,-0.2 -0.368,-0.3 -0.621,-0.3c-0.301,0 -0.52,0.124 -0.657,0.371c-0.136,0.247 -0.212,0.51 -0.225,0.791c-0.087,0 -0.184,-0.007 -0.29,-0.02c-0.107,-0.013 -0.184,-0.03 -0.231,-0.05c0.007,-0.067 0.01,-0.18 0.01,-0.341c0,-0.294 -0.02,-0.544 -0.06,-0.751c0.267,-0.14 0.554,-0.25 0.862,-0.331c0.307,-0.08 0.587,-0.12 0.841,-0.12c0.454,0 0.808,0.127 1.062,0.381c0.16,0.16 0.27,0.372 0.33,0.636c0.06,0.264 0.09,0.629 0.09,1.097l0,1.102Zm-0.901,-0.812c-0.321,0.04 -0.588,0.089 -0.801,0.146c-0.214,0.056 -0.399,0.16 -0.556,0.31c-0.157,0.15 -0.236,0.359 -0.236,0.626c0,0.234 0.057,0.411 0.171,0.531c0.113,0.12 0.257,0.18 0.43,0.18c0.161,0 0.316,-0.05 0.466,-0.15c0.15,-0.1 0.276,-0.257 0.376,-0.471c0.1,-0.213 0.15,-0.477 0.15,-0.791l0,-0.381Z" style="fill:#e9e8e4;fill-rule:nonzero;"/><path d="M1206.42,1161.19c0,-0.18 0.017,-0.324 0.05,-0.431c0.267,0 0.449,-0.061 0.546,-0.185c0.097,-0.123 0.145,-0.352 0.145,-0.686l0,-4.488c0,-0.173 -0.016,-0.31 -0.05,-0.41c-0.033,-0.1 -0.103,-0.176 -0.21,-0.226c-0.107,-0.05 -0.271,-0.075 -0.491,-0.075c0,-0.153 0.03,-0.277 0.09,-0.37c0.167,0 0.404,-0.037 0.711,-0.111c0.308,-0.073 0.518,-0.15 0.632,-0.23c0.146,0.047 0.22,0.18 0.22,0.401l0,5.509c0,0.334 0.043,0.563 0.13,0.686c0.087,0.124 0.241,0.185 0.461,0.185c0.033,0.114 0.05,0.258 0.05,0.431c-0.347,-0.02 -0.725,-0.03 -1.132,-0.03c-0.434,0 -0.818,0.01 -1.152,0.03Z" style="fill:#e9e8e4;fill-rule:nonzero;"/><path d="M1217.8,1160.76c0.04,0.134 0.06,0.278 0.06,0.431c-0.4,-0.02 -0.781,-0.03 -1.142,-0.03c-0.353,0 -0.731,0.01 -1.131,0.03c0,-0.194 0.023,-0.337 0.07,-0.431c0.187,-0.02 0.319,-0.05 0.395,-0.09c0.077,-0.04 0.116,-0.107 0.116,-0.2c0,-0.08 -0.051,-0.244 -0.151,-0.491l-0.44,-1.022c-1.062,0 -1.944,0.014 -2.645,0.04l-0.27,0.692c-0.107,0.28 -0.161,0.5 -0.161,0.661c0,0.133 0.042,0.232 0.126,0.295c0.083,0.064 0.215,0.102 0.395,0.115c0.047,0.114 0.07,0.258 0.07,0.431c-0.227,-0.02 -0.544,-0.03 -0.951,-0.03c-0.174,0 -0.451,0.01 -0.832,0.03c0,-0.167 0.024,-0.307 0.07,-0.421c0.174,-0.033 0.311,-0.12 0.411,-0.26c0.1,-0.14 0.231,-0.414 0.391,-0.821l2.073,-5.319c0.114,-0.027 0.244,-0.04 0.391,-0.04l2.384,5.469c0.167,0.374 0.299,0.621 0.396,0.741c0.096,0.12 0.222,0.194 0.375,0.22Zm-2.414,-2.253l-0.761,-1.783c-0.2,-0.461 -0.347,-0.825 -0.441,-1.092c-0.073,0.227 -0.2,0.587 -0.38,1.082l-0.692,1.793l2.274,0Z" style="fill:#e9e8e4;fill-rule:nonzero;"/><path d="M1221.49,1157.87c-0.126,0.08 -0.293,0.12 -0.5,0.12c-0.02,-0.294 -0.134,-0.551 -0.341,-0.772c-0.207,-0.22 -0.467,-0.33 -0.781,-0.33c-0.207,0 -0.373,0.05 -0.496,0.15c-0.124,0.1 -0.185,0.234 -0.185,0.401c0,0.127 0.026,0.232 0.08,0.315c0.053,0.084 0.163,0.172 0.33,0.266c0.167,0.093 0.428,0.21 0.782,0.35c0.367,0.141 0.652,0.278 0.856,0.411c0.204,0.134 0.349,0.282 0.436,0.446c0.087,0.163 0.13,0.365 0.13,0.606c0,0.421 -0.174,0.761 -0.521,1.022c-0.347,0.26 -0.785,0.39 -1.312,0.39c-0.381,0 -0.69,-0.03 -0.927,-0.09c-0.237,-0.06 -0.479,-0.154 -0.726,-0.28c0.02,-0.174 0.03,-0.398 0.03,-0.672c0,-0.18 -0.007,-0.37 -0.02,-0.57c0.1,-0.074 0.274,-0.111 0.521,-0.111c0.047,0.414 0.175,0.727 0.386,0.937c0.21,0.21 0.489,0.315 0.836,0.315c0.267,0 0.478,-0.06 0.631,-0.18c0.154,-0.12 0.23,-0.274 0.23,-0.461c0,-0.12 -0.028,-0.223 -0.085,-0.31c-0.056,-0.087 -0.162,-0.174 -0.315,-0.261c-0.154,-0.086 -0.381,-0.19 -0.681,-0.31c-0.388,-0.154 -0.685,-0.294 -0.892,-0.421c-0.207,-0.127 -0.357,-0.275 -0.451,-0.446c-0.093,-0.17 -0.14,-0.389 -0.14,-0.656c0,-0.267 0.087,-0.494 0.261,-0.681c0.173,-0.187 0.39,-0.329 0.651,-0.426c0.26,-0.096 0.511,-0.145 0.751,-0.145c0.294,0 0.554,0.029 0.781,0.085c0.227,0.057 0.448,0.146 0.661,0.266c-0.013,0.2 -0.02,0.357 -0.02,0.471c0,0.213 0.014,0.404 0.04,0.571Z" style="fill:#e9e8e4;fill-rule:nonzero;"/><path d="M1225.38,1157.87c-0.127,0.08 -0.294,0.12 -0.501,0.12c-0.02,-0.294 -0.133,-0.551 -0.34,-0.772c-0.207,-0.22 -0.468,-0.33 -0.782,-0.33c-0.207,0 -0.372,0.05 -0.496,0.15c-0.123,0.1 -0.185,0.234 -0.185,0.401c0,0.127 0.027,0.232 0.08,0.315c0.054,0.084 0.164,0.172 0.331,0.266c0.167,0.093 0.427,0.21 0.781,0.35c0.367,0.141 0.653,0.278 0.857,0.411c0.203,0.134 0.348,0.282 0.435,0.446c0.087,0.163 0.13,0.365 0.13,0.606c0,0.421 -0.173,0.761 -0.52,1.022c-0.348,0.26 -0.785,0.39 -1.313,0.39c-0.38,0 -0.689,-0.03 -0.926,-0.09c-0.237,-0.06 -0.479,-0.154 -0.726,-0.28c0.02,-0.174 0.03,-0.398 0.03,-0.672c0,-0.18 -0.007,-0.37 -0.02,-0.57c0.1,-0.074 0.273,-0.111 0.521,-0.111c0.046,0.414 0.175,0.727 0.385,0.937c0.211,0.21 0.489,0.315 0.837,0.315c0.267,0 0.477,-0.06 0.631,-0.18c0.153,-0.12 0.23,-0.274 0.23,-0.461c0,-0.12 -0.028,-0.223 -0.085,-0.31c-0.057,-0.087 -0.162,-0.174 -0.316,-0.261c-0.153,-0.086 -0.38,-0.19 -0.681,-0.31c-0.387,-0.154 -0.684,-0.294 -0.891,-0.421c-0.207,-0.127 -0.358,-0.275 -0.451,-0.446c-0.094,-0.17 -0.14,-0.389 -0.14,-0.656c0,-0.267 0.087,-0.494 0.26,-0.681c0.174,-0.187 0.391,-0.329 0.651,-0.426c0.261,-0.096 0.511,-0.145 0.752,-0.145c0.293,0 0.554,0.029 0.781,0.085c0.227,0.057 0.447,0.146 0.661,0.266c-0.013,0.2 -0.02,0.357 -0.02,0.471c0,0.213 0.013,0.404 0.04,0.571Z" style="fill:#e9e8e4;fill-rule:nonzero;"/><path d="M1229.65,1160.11c0.054,0.034 0.105,0.08 0.155,0.141c0.05,0.06 0.079,0.116 0.086,0.17c-0.227,0.294 -0.486,0.506 -0.777,0.636c-0.29,0.13 -0.626,0.195 -1.006,0.195c-0.461,0 -0.85,-0.105 -1.167,-0.315c-0.318,-0.211 -0.556,-0.496 -0.717,-0.857c-0.16,-0.36 -0.24,-0.764 -0.24,-1.212c0,-0.434 0.085,-0.831 0.255,-1.192c0.171,-0.36 0.413,-0.649 0.727,-0.866c0.314,-0.217 0.677,-0.326 1.091,-0.326c0.608,0 1.061,0.189 1.358,0.566c0.297,0.377 0.469,0.88 0.516,1.508c-0.027,0.133 -0.077,0.247 -0.151,0.34c-1.175,0 -2.11,0.017 -2.804,0.05c0.033,0.515 0.162,0.934 0.385,1.257c0.224,0.324 0.58,0.486 1.067,0.486c0.227,0 0.448,-0.05 0.661,-0.15c0.214,-0.1 0.401,-0.244 0.561,-0.431Zm-1.683,-3.145c-0.267,0 -0.494,0.114 -0.681,0.341c-0.187,0.227 -0.294,0.607 -0.32,1.142l1.923,0c0,-0.448 -0.082,-0.807 -0.246,-1.077c-0.163,-0.271 -0.389,-0.406 -0.676,-0.406Z" style="fill:#e9e8e4;fill-rule:nonzero;"/><path d="M1238.19,1160.76c0.034,0.101 0.051,0.244 0.051,0.431c-0.301,-0.02 -0.665,-0.03 -1.092,-0.03c-0.461,0 -0.858,0.01 -1.192,0.03c0,-0.194 0.016,-0.337 0.05,-0.431c0.267,-0.013 0.449,-0.078 0.546,-0.195c0.097,-0.117 0.145,-0.342 0.145,-0.676l0,-1.523c0,-0.447 -0.08,-0.763 -0.24,-0.946c-0.161,-0.184 -0.388,-0.276 -0.682,-0.276c-0.187,0 -0.364,0.057 -0.53,0.171c-0.167,0.113 -0.306,0.297 -0.416,0.551c-0.11,0.253 -0.165,0.571 -0.165,0.951l0,1.072c0,0.334 0.05,0.559 0.15,0.676c0.1,0.117 0.284,0.182 0.551,0.195c0.033,0.101 0.05,0.244 0.05,0.431c-0.341,-0.02 -0.738,-0.03 -1.192,-0.03c-0.434,0 -0.832,0.01 -1.192,0.03c0,-0.194 0.017,-0.337 0.05,-0.431c0.267,-0.013 0.449,-0.078 0.546,-0.195c0.097,-0.117 0.145,-0.342 0.145,-0.676l0,-1.573c0,-0.447 -0.08,-0.763 -0.24,-0.946c-0.161,-0.184 -0.388,-0.276 -0.681,-0.276c-0.187,0 -0.364,0.057 -0.531,0.171c-0.167,0.113 -0.306,0.297 -0.416,0.55c-0.11,0.254 -0.165,0.571 -0.165,0.952l0,1.122c0,0.327 0.05,0.551 0.15,0.671c0.1,0.12 0.284,0.187 0.551,0.2c0.033,0.101 0.05,0.244 0.05,0.431c-0.341,-0.02 -0.738,-0.03 -1.192,-0.03c-0.474,0 -0.872,0.01 -1.192,0.03c0,-0.194 0.017,-0.337 0.05,-0.431c0.267,-0.013 0.449,-0.078 0.546,-0.195c0.097,-0.117 0.145,-0.342 0.145,-0.676l0,-1.983c0,-0.174 -0.018,-0.309 -0.055,-0.406c-0.037,-0.097 -0.108,-0.17 -0.215,-0.22c-0.107,-0.051 -0.267,-0.079 -0.481,-0.086c0,-0.153 0.03,-0.277 0.09,-0.37c0.174,-0.014 0.401,-0.055 0.681,-0.125c0.281,-0.071 0.484,-0.142 0.611,-0.216c0.147,0.047 0.221,0.181 0.221,0.401c0,0.16 -0.014,0.374 -0.04,0.641c0.08,-0.187 0.133,-0.294 0.16,-0.321c0.127,-0.187 0.317,-0.353 0.571,-0.5c0.253,-0.147 0.541,-0.221 0.861,-0.221c0.301,0 0.564,0.069 0.792,0.206c0.227,0.136 0.39,0.348 0.49,0.636c0.027,0.093 0.04,0.177 0.04,0.25c0.047,-0.127 0.104,-0.234 0.171,-0.32c0.133,-0.187 0.325,-0.354 0.576,-0.501c0.25,-0.147 0.536,-0.221 0.856,-0.221c0.414,0 0.753,0.131 1.017,0.391c0.264,0.26 0.395,0.674 0.395,1.242l0,1.723c0,0.327 0.046,0.551 0.136,0.671c0.09,0.12 0.245,0.187 0.465,0.2Z" style="fill:#e9e8e4;fill-rule:nonzero;"/><path d="M1241.3,1156.48c0.601,0 1.063,0.182 1.387,0.546c0.324,0.364 0.486,0.923 0.486,1.678c0,0.467 -0.104,0.895 -0.311,1.282c-0.207,0.387 -0.501,0.695 -0.881,0.922c-0.381,0.227 -0.815,0.34 -1.302,0.34c-0.428,0 -0.805,-0.062 -1.132,-0.185c-0.327,-0.124 -0.601,-0.289 -0.822,-0.496c0.074,-0.093 0.129,-0.235 0.166,-0.426c0.036,-0.19 0.055,-0.472 0.055,-0.846l0,-3.897c0,-0.173 -0.017,-0.31 -0.05,-0.41c-0.034,-0.1 -0.104,-0.176 -0.211,-0.226c-0.107,-0.05 -0.27,-0.075 -0.491,-0.075c0,-0.153 0.031,-0.277 0.091,-0.37c0.167,0 0.404,-0.037 0.711,-0.111c0.307,-0.073 0.517,-0.15 0.631,-0.23c0.147,0.047 0.22,0.18 0.22,0.401l0,2.614c0,0.127 -0.013,0.271 -0.04,0.431l0.12,-0.201c0.107,-0.18 0.286,-0.348 0.536,-0.505c0.251,-0.157 0.53,-0.236 0.837,-0.236Zm-0.571,4.307c0.22,0 0.44,-0.056 0.661,-0.17c0.22,-0.113 0.407,-0.315 0.561,-0.606c0.153,-0.29 0.23,-0.683 0.23,-1.177c0,-0.4 -0.06,-0.729 -0.18,-0.986c-0.12,-0.258 -0.266,-0.445 -0.436,-0.561c-0.17,-0.117 -0.339,-0.176 -0.506,-0.176c-0.334,0 -0.619,0.157 -0.856,0.471c-0.237,0.314 -0.356,0.795 -0.356,1.443l0,1.412c0.127,0.113 0.259,0.2 0.396,0.26c0.137,0.06 0.299,0.09 0.486,0.09Z" style="fill:#e9e8e4;fill-rule:nonzero;"/><path d="M1243.04,1161.19c0,-0.18 0.016,-0.324 0.05,-0.431c0.267,0 0.449,-0.061 0.546,-0.185c0.096,-0.123 0.145,-0.352 0.145,-0.686l0,-4.488c0,-0.173 -0.017,-0.31 -0.05,-0.41c-0.034,-0.1 -0.104,-0.176 -0.211,-0.226c-0.106,-0.05 -0.27,-0.075 -0.49,-0.075c0,-0.153 0.03,-0.277 0.09,-0.37c0.167,0 0.404,-0.037 0.711,-0.111c0.307,-0.073 0.517,-0.15 0.631,-0.23c0.147,0.047 0.22,0.18 0.22,0.401l0,5.509c0,0.334 0.044,0.563 0.131,0.686c0.086,0.124 0.24,0.185 0.46,0.185c0.034,0.114 0.05,0.258 0.05,0.431c-0.347,-0.02 -0.724,-0.03 -1.131,-0.03c-0.435,0 -0.818,0.01 -1.152,0.03Z" style="fill:#e9e8e4;fill-rule:nonzero;"/><path d="M1249.34,1156.57c0.468,0 0.802,-0.006 1.002,-0.02c0,0.194 -0.02,0.338 -0.06,0.431c-0.181,0.047 -0.319,0.134 -0.416,0.261c-0.097,0.126 -0.229,0.387 -0.396,0.781l-1.472,3.506c-0.254,0.601 -0.471,1.051 -0.651,1.352c-0.18,0.3 -0.352,0.504 -0.516,0.611c-0.164,0.107 -0.356,0.16 -0.576,0.16c-0.3,0 -0.551,-0.077 -0.751,-0.23c-0.02,-0.08 -0.03,-0.184 -0.03,-0.311c0,-0.147 0.013,-0.287 0.04,-0.42c0.227,0.04 0.441,0.06 0.641,0.06c0.427,0 0.764,-0.197 1.012,-0.591c0.113,-0.167 0.267,-0.478 0.46,-0.932c-0.36,-0.814 -0.814,-1.82 -1.362,-3.015c-0.16,-0.334 -0.29,-0.584 -0.391,-0.751c-0.1,-0.167 -0.193,-0.282 -0.28,-0.346c-0.087,-0.063 -0.19,-0.108 -0.311,-0.135c-0.04,-0.12 -0.06,-0.264 -0.06,-0.431c0.508,0.014 0.885,0.02 1.132,0.02c0.341,0 0.785,-0.006 1.332,-0.02c0,0.174 -0.023,0.318 -0.07,0.431c-0.227,0.033 -0.39,0.085 -0.491,0.155c-0.1,0.07 -0.15,0.169 -0.15,0.296c0,0.14 0.07,0.357 0.211,0.651c0.227,0.461 0.527,1.149 0.901,2.063l0.09,-0.23l0.691,-1.743c0.114,-0.287 0.171,-0.507 0.171,-0.661c0,-0.16 -0.05,-0.279 -0.151,-0.356c-0.1,-0.076 -0.257,-0.135 -0.47,-0.175c-0.047,-0.133 -0.07,-0.277 -0.07,-0.431c0.207,0.014 0.537,0.02 0.991,0.02Z" style="fill:#e9e8e4;fill-rule:nonzero;"/></g><g transform="matrix(9.09843,0,0,9.09843,-11705.5,-19562.8)"><path d="M1304.13,2252.55c-3.303,0 -6.256,-0.799 -8.859,-2.397c-2.603,-1.597 -4.632,-3.832 -6.086,-6.705c-1.454,-2.872 -2.181,-6.157 -2.181,-9.855c0,-3.95 0.835,-7.307 2.504,-10.071c1.67,-2.765 3.878,-4.847 6.624,-6.247c2.747,-1.401 5.7,-2.101 8.86,-2.101c2.19,0 4.218,0.225 6.085,0.673c1.867,0.449 3.824,1.158 5.871,2.128c-0.395,1.867 -0.593,4.649 -0.593,8.347c-0.79,0.323 -1.741,0.485 -2.854,0.485c-0.144,-3.59 -0.88,-6.059 -2.208,-7.405c-1.329,-1.347 -3.285,-2.02 -5.871,-2.02c-2.908,0 -5.313,0.682 -7.216,2.047c-1.903,1.364 -3.303,3.159 -4.201,5.385c-0.897,2.226 -1.346,4.668 -1.346,7.325c0,3.231 0.547,6.148 1.642,8.751c1.095,2.603 2.684,4.65 4.767,6.14c2.082,1.49 4.523,2.235 7.324,2.235c1.687,0 3.429,-0.288 5.224,-0.862c1.795,-0.574 3.465,-1.346 5.008,-2.316c0.216,0.18 0.422,0.44 0.62,0.781c0.197,0.341 0.314,0.637 0.35,0.889c-2.19,1.687 -4.318,2.908 -6.382,3.662c-2.065,0.754 -4.425,1.131 -7.082,1.131Z" style="fill:#e9e8e4;fill-rule:nonzero;"/><path d="M1348.03,2249.91c0.18,0.539 0.269,1.31 0.269,2.316c-1.543,-0.108 -3.5,-0.162 -5.87,-0.162c-1.472,0 -3.249,0.036 -5.332,0.108c-0.251,0.036 -0.61,0.054 -1.077,0.054c0,-1.041 0.09,-1.813 0.27,-2.316c1.328,0 2.28,-0.341 2.854,-1.023c0.574,-0.682 0.862,-1.903 0.862,-3.662l0,-8.186c0,-2.37 -0.44,-4.058 -1.32,-5.063c-0.879,-1.005 -2.109,-1.508 -3.689,-1.508c-1.005,0 -1.975,0.305 -2.908,0.916c-0.934,0.61 -1.697,1.597 -2.289,2.962c-0.592,1.364 -0.889,3.069 -0.889,5.116l0,5.763c0,1.795 0.27,3.024 0.808,3.689c0.539,0.664 1.508,0.996 2.908,0.996c0.18,0.539 0.27,1.31 0.27,2.316c-3.016,-0.108 -5.152,-0.162 -6.409,-0.162c-2.693,0 -4.829,0.054 -6.409,0.162c0,-1.041 0.09,-1.813 0.269,-2.316c1.401,0 2.37,-0.332 2.909,-0.996c0.538,-0.665 0.807,-1.894 0.807,-3.689l0,-24.128c0,-0.933 -0.089,-1.669 -0.269,-2.208c-0.179,-0.538 -0.556,-0.942 -1.131,-1.212c-0.574,-0.269 -1.454,-0.403 -2.639,-0.403c0,-0.826 0.162,-1.49 0.485,-1.993c0.898,0 2.172,-0.198 3.824,-0.592c1.651,-0.395 2.782,-0.808 3.393,-1.239c0.79,0.251 1.184,0.969 1.184,2.154l0,13.679c0,1.149 -0.125,2.208 -0.377,3.178c0.072,-0.108 0.171,-0.296 0.297,-0.566c0.125,-0.269 0.296,-0.547 0.511,-0.834c0.718,-1.006 1.769,-1.903 3.151,-2.693c1.382,-0.79 2.935,-1.185 4.658,-1.185c2.262,0 4.111,0.7 5.547,2.1c1.437,1.401 2.155,3.627 2.155,6.678l0,9.264c0,1.795 0.251,3.024 0.754,3.689c0.502,0.664 1.31,0.996 2.423,0.996Z" style="fill:#e9e8e4;fill-rule:nonzero;"/><path d="M1371.35,2244.74c0,1.364 0.206,2.316 0.619,2.854c0.413,0.539 1.319,0.808 2.72,0.808c0,1.041 -0.108,1.867 -0.324,2.477c-0.933,0.072 -1.992,0.261 -3.177,0.566c-1.185,0.305 -2.172,0.673 -2.962,1.104c-0.467,-0.216 -0.808,-0.512 -1.023,-0.889c-0.216,-0.377 -0.323,-1.122 -0.323,-2.235c0,-0.79 0.053,-1.544 0.161,-2.262c-0.323,0.754 -0.897,1.544 -1.723,2.37c-0.97,0.969 -1.975,1.669 -3.016,2.1c-1.041,0.431 -2.28,0.647 -3.716,0.647c-2.549,0 -4.47,-0.736 -5.763,-2.208c-1.292,-1.473 -1.939,-3.932 -1.939,-7.379l0,-8.132c0,-0.969 -0.071,-1.705 -0.215,-2.208c-0.144,-0.503 -0.467,-0.889 -0.969,-1.158c-0.503,-0.269 -1.293,-0.422 -2.37,-0.458c0,-0.825 0.126,-1.49 0.377,-1.992c1.113,-0.072 2.325,-0.287 3.635,-0.646c1.311,-0.36 2.379,-0.754 3.205,-1.185c0.79,0.251 1.184,1.041 1.184,2.369l0,12.226c0,2.513 0.342,4.389 1.024,5.627c0.682,1.239 1.831,1.858 3.446,1.858c1.867,0 3.384,-0.78 4.551,-2.342c1.167,-1.562 1.751,-3.851 1.751,-6.867l0,-5.493c0,-0.934 -0.099,-1.661 -0.297,-2.181c-0.197,-0.521 -0.583,-0.916 -1.158,-1.185c-0.574,-0.269 -1.436,-0.422 -2.585,-0.458c0,-0.503 0.018,-0.888 0.054,-1.158c0.036,-0.269 0.144,-0.547 0.323,-0.835c1.365,-0.071 2.72,-0.251 4.066,-0.538c1.347,-0.287 2.433,-0.628 3.259,-1.023c0.79,0.251 1.185,1.041 1.185,2.369l0,15.457Z" style="fill:#e9e8e4;fill-rule:nonzero;"/><path d="M1393,2227.4c1.365,0 2.603,0.431 3.716,1.293c-0.251,1.651 -0.377,3.77 -0.377,6.355c-0.969,0.323 -1.992,0.485 -3.069,0.485c-0.072,-1.616 -0.332,-2.72 -0.781,-3.313c-0.449,-0.592 -1.068,-0.888 -1.858,-0.888c-0.646,0 -1.329,0.35 -2.047,1.05c-0.718,0.7 -1.319,1.643 -1.804,2.827c-0.485,1.185 -0.727,2.442 -0.727,3.77l0,5.17c0,1.544 0.162,2.72 0.485,3.528c0.323,0.808 0.817,1.364 1.481,1.669c0.664,0.306 1.606,0.494 2.827,0.566c0.18,0.503 0.269,1.275 0.269,2.316c-1.651,-0.108 -3.913,-0.162 -6.785,-0.162c-3.339,0 -5.709,0.054 -7.109,0.162c0,-1.041 0.09,-1.813 0.269,-2.316c1.436,-0.072 2.415,-0.422 2.935,-1.05c0.521,-0.629 0.781,-1.84 0.781,-3.635l0,-10.664c0,-0.933 -0.099,-1.66 -0.296,-2.181c-0.198,-0.521 -0.584,-0.916 -1.158,-1.185c-0.574,-0.269 -1.436,-0.422 -2.585,-0.458c0,-0.825 0.161,-1.49 0.485,-1.992c1.113,-0.072 2.387,-0.287 3.823,-0.646c1.436,-0.36 2.567,-0.754 3.393,-1.185c0.79,0.251 1.185,1.041 1.185,2.369c0,1.221 -0.108,2.361 -0.323,3.42c-0.215,1.059 -0.341,1.679 -0.377,1.858c0.072,-0.215 0.215,-0.646 0.431,-1.292c0.215,-0.647 0.449,-1.149 0.7,-1.508c1.831,-2.909 4.003,-4.363 6.516,-4.363Z" style="fill:#e9e8e4;fill-rule:nonzero;"/><path d="M1409.53,2252.55c-1.903,0 -3.707,-0.485 -5.412,-1.454c-1.706,-0.97 -3.097,-2.415 -4.174,-4.336c-1.077,-1.92 -1.616,-4.227 -1.616,-6.92c0,-2.226 0.44,-4.326 1.32,-6.301c0.879,-1.975 2.163,-3.573 3.85,-4.793c1.688,-1.221 3.698,-1.831 6.032,-1.831c3.375,0 6.086,0.808 8.132,2.423c-0.251,1.616 -0.377,3.662 -0.377,6.14c-0.538,0.287 -1.364,0.431 -2.477,0.431c-0.216,-2.047 -0.826,-3.636 -1.831,-4.767c-1.006,-1.131 -2.298,-1.696 -3.878,-1.696c-1.795,0 -3.204,0.835 -4.227,2.504c-1.024,1.67 -1.535,4.03 -1.535,7.082c0,1.831 0.305,3.546 0.915,5.143c0.611,1.598 1.49,2.882 2.639,3.851c1.149,0.969 2.531,1.454 4.147,1.454c1.149,0 2.235,-0.269 3.258,-0.808c1.023,-0.538 1.93,-1.31 2.72,-2.315c0.287,0.143 0.556,0.35 0.808,0.619c0.251,0.269 0.431,0.565 0.538,0.888c-1.974,3.124 -4.918,4.686 -8.832,4.686Z" style="fill:#e9e8e4;fill-rule:nonzero;"/><path d="M1446.91,2249.91c0.179,0.539 0.269,1.31 0.269,2.316c-1.544,-0.108 -3.501,-0.162 -5.87,-0.162c-1.472,0 -3.25,0.036 -5.332,0.108c-0.251,0.036 -0.61,0.054 -1.077,0.054c0,-1.041 0.09,-1.813 0.269,-2.316c1.329,0 2.28,-0.341 2.855,-1.023c0.574,-0.682 0.861,-1.903 0.861,-3.662l0,-8.186c0,-2.37 -0.44,-4.058 -1.319,-5.063c-0.88,-1.005 -2.11,-1.508 -3.689,-1.508c-1.006,0 -1.975,0.305 -2.908,0.916c-0.934,0.61 -1.697,1.597 -2.289,2.962c-0.593,1.364 -0.889,3.069 -0.889,5.116l0,5.763c0,1.795 0.269,3.024 0.808,3.689c0.538,0.664 1.508,0.996 2.908,0.996c0.18,0.539 0.269,1.31 0.269,2.316c-3.016,-0.108 -5.152,-0.162 -6.408,-0.162c-2.693,0 -4.83,0.054 -6.409,0.162c0,-1.041 0.089,-1.813 0.269,-2.316c1.4,0 2.37,-0.332 2.908,-0.996c0.539,-0.665 0.808,-1.894 0.808,-3.689l0,-24.128c0,-0.933 -0.09,-1.669 -0.269,-2.208c-0.18,-0.538 -0.557,-0.942 -1.131,-1.212c-0.575,-0.269 -1.454,-0.403 -2.639,-0.403c0,-0.826 0.161,-1.49 0.485,-1.993c0.897,0 2.172,-0.198 3.823,-0.592c1.652,-0.395 2.783,-0.808 3.393,-1.239c0.79,0.251 1.185,0.969 1.185,2.154l0,13.679c0,1.149 -0.126,2.208 -0.377,3.178c0.072,-0.108 0.171,-0.296 0.296,-0.566c0.126,-0.269 0.296,-0.547 0.512,-0.834c0.718,-1.006 1.768,-1.903 3.15,-2.693c1.383,-0.79 2.936,-1.185 4.659,-1.185c2.262,0 4.111,0.7 5.547,2.1c1.436,1.401 2.154,3.627 2.154,6.678l0,9.264c0,1.795 0.252,3.024 0.754,3.689c0.503,0.664 1.311,0.996 2.424,0.996Z" style="fill:#e9e8e4;fill-rule:nonzero;"/></g><path d="M364.984,146.197c-8,0 -13.866,-2.033 -17.6,-6.1c-3.733,-4.067 -5.6,-10.633 -5.6,-19.7l0,-54.2c-4,-1.333 -8.8,-2.2 -14.4,-2.6c0,-3.067 0.6,-6 1.8,-8.8l12.6,0l0,-26.4c5.2,-1.467 10.134,-4.133 14.8,-8c1.334,0.667 2.2,1.567 2.6,2.7c0.4,1.133 0.6,3.7 0.6,7.7l0,24l26,0c0,2.8 -0.6,5.733 -1.8,8.8c-9.866,0.4 -17.933,1.267 -24.2,2.6l0,50c0,12.8 3.867,19.2 11.6,19.2c2.667,0 5.034,-0.4 7.1,-1.2c2.067,-0.8 4.1,-2 6.1,-3.6c1.734,2 2.734,4.2 3,6.6c-2.266,2.533 -5.566,4.667 -9.9,6.4c-4.333,1.733 -8.566,2.6 -12.7,2.6Z" style="fill:#e9e8e4;fill-rule:nonzero;"/><path d="M504.584,136.397c0.667,2 1,4.867 1,8.6c-5.733,-0.4 -13,-0.6 -21.8,-0.6c-5.466,0 -12.066,0.133 -19.8,0.4c-0.933,0.133 -2.266,0.2 -4,0.2c0,-3.867 0.334,-6.733 1,-8.6c4.934,0 8.467,-1.267 10.6,-3.8c2.134,-2.533 3.2,-7.067 3.2,-13.6l0,-30.4c0,-8.8 -1.633,-15.067 -4.9,-18.8c-3.266,-3.733 -7.833,-5.6 -13.7,-5.6c-3.733,0 -7.333,1.133 -10.8,3.4c-3.466,2.267 -6.3,5.933 -8.5,11c-2.2,5.067 -3.3,11.4 -3.3,19l0,21.4c0,6.667 1,11.233 3,13.7c2,2.467 5.6,3.7 10.8,3.7c0.667,2 1,4.867 1,8.6c-11.2,-0.4 -19.133,-0.6 -23.8,-0.6c-10,0 -17.933,0.2 -23.8,0.6c0,-3.867 0.334,-6.733 1,-8.6c5.2,0 8.8,-1.233 10.8,-3.7c2,-2.467 3,-7.033 3,-13.7l0,-89.6c0,-3.467 -0.333,-6.2 -1,-8.2c-0.666,-2 -2.066,-3.5 -4.2,-4.5c-2.133,-1 -5.4,-1.5 -9.8,-1.5c0,-3.067 0.6,-5.533 1.8,-7.4c3.334,0 8.067,-0.733 14.2,-2.2c6.134,-1.467 10.334,-3 12.6,-4.6c2.934,0.933 4.4,3.6 4.4,8l0,50.8c0,4.267 -0.466,8.2 -1.4,11.8c0.267,-0.4 0.634,-1.1 1.1,-2.1c0.467,-1 1.1,-2.033 1.9,-3.1c2.667,-3.733 6.567,-7.067 11.7,-10c5.134,-2.933 10.9,-4.4 17.3,-4.4c8.4,0 15.267,2.6 20.6,7.8c5.334,5.2 8,13.467 8,24.8l0,34.4c0,6.667 0.934,11.233 2.8,13.7c1.867,2.467 4.867,3.7 9,3.7Z" style="fill:#e9e8e4;fill-rule:nonzero;"/><path d="M593.984,123.397c1.067,0.667 2.1,1.6 3.1,2.8c1,1.2 1.567,2.333 1.7,3.4c-4.533,5.867 -9.7,10.1 -15.5,12.7c-5.8,2.6 -12.5,3.9 -20.1,3.9c-9.2,0 -16.966,-2.1 -23.3,-6.3c-6.333,-4.2 -11.1,-9.9 -14.3,-17.1c-3.2,-7.2 -4.8,-15.267 -4.8,-24.2c0,-8.667 1.7,-16.6 5.1,-23.8c3.4,-7.2 8.234,-12.967 14.5,-17.3c6.267,-4.333 13.534,-6.5 21.8,-6.5c12.134,0 21.167,3.767 27.1,11.3c5.934,7.533 9.367,17.567 10.3,30.1c-0.533,2.667 -1.533,4.933 -3,6.8c-23.466,0 -42.133,0.333 -56,1c0.667,10.267 3.234,18.633 7.7,25.1c4.467,6.467 11.567,9.7 21.3,9.7c4.534,0 8.934,-1 13.2,-3c4.267,-2 8,-4.867 11.2,-8.6Zm-33.6,-62.8c-5.333,0 -9.866,2.267 -13.6,6.8c-3.733,4.533 -5.866,12.133 -6.4,22.8l38.4,0c0,-8.933 -1.633,-16.1 -4.9,-21.5c-3.266,-5.4 -7.766,-8.1 -13.5,-8.1Z" style="fill:#e9e8e4;fill-rule:nonzero;"/><path d="M1716.52,500.604l1615.35,0" style="fill:none;stroke:#e9e8e4;stroke-width:22.96px;"/><path d="M17.168,500.604l1502.51,0" style="fill:none;stroke:#e9e8e4;stroke-width:22.96px;"/><path d="M1663.14,581.057c4,4.333 7.875,7.25 11.625,8.75c3.75,1.5 9.458,2.5 17.125,3c0,4.667 -0.5,8.417 -1.5,11.25c-4.834,0 -11.125,0.5 -18.875,1.5c-7.75,1 -13.625,2.083 -17.625,3.25c-5.334,-7.333 -11.834,-15.5 -19.5,-24.5c-7,8.667 -14.292,14.958 -21.875,18.875c-7.584,3.917 -16.042,5.875 -25.375,5.875c-12.5,0 -22.75,-2.625 -30.75,-7.875c-8,-5.25 -13.792,-12 -17.375,-20.25c-3.584,-8.25 -5.375,-17.042 -5.375,-26.375c0,-11 2.916,-20.958 8.75,-29.875c5.833,-8.917 13.583,-16.708 23.25,-23.375c-6.667,-12 -10,-24.25 -10,-36.75c0,-6.5 1.625,-12.583 4.875,-18.25c3.25,-5.667 8,-10.25 14.25,-13.75c6.25,-3.5 13.541,-5.25 21.875,-5.25c7,0 13.083,0.667 18.25,2c5.166,1.333 10.416,3.583 15.75,6.75c-1,6.5 -1.5,13.667 -1.5,21.5c0,3.5 0.083,6.083 0.25,7.75c-3,1.333 -7.417,2 -13.25,2c-0.667,-10.5 -2.625,-17.958 -5.875,-22.375c-3.25,-4.417 -8.292,-6.625 -15.125,-6.625c-5.834,0 -10.584,1.917 -14.25,5.75c-3.667,3.833 -5.5,9.083 -5.5,15.75c0,7.5 1.583,14.625 4.75,21.375c3.166,6.75 9.416,15.958 18.75,27.625c11.166,13.833 25.333,30.083 42.5,48.75c8,-13.333 13.166,-24.833 15.5,-34.5c0.666,-2.167 1,-4.417 1,-6.75c0,-4 -1.5,-7.083 -4.5,-9.25c-3,-2.167 -8.084,-3.917 -15.25,-5.25c-1.167,-3.833 -1.75,-7.333 -1.75,-10.5c7,0.5 15.5,0.75 25.5,0.75c11,0 19.333,-0.25 25,-0.75c0,4.167 -0.334,7.583 -1,10.25c-5,1.833 -8.709,4.208 -11.125,7.125c-2.417,2.917 -4.459,7.375 -6.125,13.375c-2,7.167 -4.5,14.208 -7.5,21.125c-3,6.917 -6.917,14.625 -11.75,23.125l13.75,14.75Zm-72.75,8.75c7,0 13.291,-1.167 18.875,-3.5c5.583,-2.333 11.208,-6.167 16.875,-11.5l-17.75,-20c-15.334,-17.5 -22.667,-25.833 -22,-25c-7.167,-8.667 -12.417,-15.5 -15.75,-20.5c-5,5.167 -8.917,10.833 -11.75,17c-2.834,6.167 -4.25,13.167 -4.25,21c0,13.333 3.416,23.75 10.25,31.25c6.833,7.5 15.333,11.25 25.5,11.25Z" style="fill:#e9e8e4;fill-rule:nonzero;"/><g transform="matrix(1,0,0,1,-893.651,-1336.79)"><path d="M2734.07,1951.27l0,144.06l33.81,0c20.58,0 34.709,-2.695 42.385,-8.085c7.677,-5.39 11.679,-15.925 12.005,-31.605c7.84,-2.286 15.68,-3.43 23.52,-3.43c-0.653,11.107 -0.98,28.91 -0.98,53.41c0,26.787 0.327,45.734 0.98,56.84c-8.82,0 -16.333,-0.816 -22.54,-2.45c-1.306,-16.986 -5.798,-28.501 -13.475,-34.545c-7.676,-6.043 -21.641,-9.065 -41.895,-9.065l-33.81,0l0,74.48c0,14.047 1.47,24.745 4.41,32.095c2.94,7.35 7.432,12.414 13.475,15.19c6.044,2.777 14.619,4.492 25.725,5.145c1.634,4.574 2.45,11.597 2.45,21.07c-15.026,-0.98 -35.606,-1.47 -61.74,-1.47c-31.686,0 -53.9,0.49 -66.64,1.47c0,-9.473 0.817,-16.496 2.45,-21.07c13.067,-0.653 21.969,-3.838 26.705,-9.555c4.737,-5.716 7.105,-16.741 7.105,-33.075l0,-206.78c0,-16.333 -2.368,-27.358 -7.105,-33.075c-4.736,-5.716 -13.638,-8.901 -26.705,-9.555c-1.633,-4.573 -2.45,-11.596 -2.45,-21.07c21.56,0.98 48.837,1.47 81.83,1.47c58.474,0 103.88,-0.49 136.22,-1.47c3.267,35.934 6.697,61.74 10.29,77.42c-4.9,3.92 -12.25,5.88 -22.05,5.88c-1.633,-18.293 -8.248,-33.238 -19.845,-44.835c-11.596,-11.596 -31.768,-17.395 -60.515,-17.395l-43.61,0Z" style="fill:#e9e8e4;fill-rule:nonzero;"/><path d="M2932.52,1978.71c-8.166,0 -15.026,-2.776 -20.58,-8.33c-5.553,-5.553 -8.33,-12.25 -8.33,-20.09c0,-8.493 2.859,-15.598 8.575,-21.315c5.717,-5.716 12.495,-8.575 20.335,-8.575c8.82,0 15.925,2.777 21.315,8.33c5.39,5.554 8.085,12.74 8.085,21.56c0,7.514 -2.858,14.129 -8.575,19.845c-5.716,5.717 -12.658,8.575 -20.825,8.575Zm-54.39,285.67c0,-8.82 0.817,-15.843 2.45,-21.07c13.067,0 21.969,-3.021 26.705,-9.065c4.737,-6.043 7.105,-17.231 7.105,-33.565l0,-97.02c0,-8.493 -0.816,-15.19 -2.45,-20.09c-1.633,-4.9 -5.063,-8.575 -10.29,-11.025c-5.226,-2.45 -13.23,-3.675 -24.01,-3.675c0,-7.513 1.47,-13.556 4.41,-18.13c8.167,0 19.764,-1.796 34.79,-5.39c15.027,-3.593 25.317,-7.35 30.87,-11.27c7.187,2.287 10.78,8.82 10.78,19.6l0,147c0,16.334 2.124,27.522 6.37,33.565c4.247,6.044 11.76,9.065 22.54,9.065c1.634,5.554 2.45,12.577 2.45,21.07c-16.986,-0.98 -35.443,-1.47 -55.37,-1.47c-21.233,0 -40.016,0.49 -56.35,1.47Z" style="fill:#e9e8e4;fill-rule:nonzero;"/><path d="M3149.59,2038.49c12.414,0 23.684,3.92 33.81,11.76c-2.286,15.027 -3.43,34.3 -3.43,57.82c-8.82,2.94 -18.13,4.41 -27.93,4.41c-0.653,-14.7 -3.021,-24.745 -7.105,-30.135c-4.083,-5.39 -9.718,-8.085 -16.905,-8.085c-5.88,0 -12.086,3.185 -18.62,9.555c-6.533,6.37 -12.005,14.945 -16.415,25.725c-4.41,10.78 -6.615,22.214 -6.615,34.3l0,47.04c0,14.047 1.47,24.745 4.41,32.095c2.94,7.35 7.432,12.414 13.475,15.19c6.044,2.777 14.619,4.492 25.725,5.145c1.634,4.574 2.45,11.597 2.45,21.07c-15.026,-0.98 -35.606,-1.47 -61.74,-1.47c-30.38,0 -51.94,0.49 -64.68,1.47c0,-9.473 0.817,-16.496 2.45,-21.07c13.067,-0.653 21.969,-3.838 26.705,-9.555c4.737,-5.716 7.105,-16.741 7.105,-33.075l0,-97.02c0,-8.493 -0.898,-15.108 -2.695,-19.845c-1.796,-4.736 -5.308,-8.33 -10.535,-10.78c-5.226,-2.45 -13.066,-3.838 -23.52,-4.165c0,-7.513 1.47,-13.556 4.41,-18.13c10.127,-0.653 21.724,-2.613 34.79,-5.88c13.067,-3.266 23.357,-6.86 30.87,-10.78c7.187,2.287 10.78,9.474 10.78,21.56c0,11.107 -0.98,21.479 -2.94,31.115c-1.96,9.637 -3.103,15.272 -3.43,16.905c0.654,-1.96 1.96,-5.88 3.92,-11.76c1.96,-5.88 4.084,-10.453 6.37,-13.72c16.66,-26.46 36.424,-39.69 59.29,-39.69Z" style="fill:#e9e8e4;fill-rule:nonzero;"/><path d="M3348.53,2102.19c-6.206,3.92 -14.373,5.88 -24.5,5.88c-0.98,-14.373 -6.533,-26.95 -16.66,-37.73c-10.126,-10.78 -22.866,-16.17 -38.22,-16.17c-10.126,0 -18.211,2.45 -24.255,7.35c-6.043,4.9 -9.065,11.434 -9.065,19.6c0,6.207 1.307,11.352 3.92,15.435c2.614,4.084 8.004,8.412 16.17,12.985c8.167,4.574 20.907,10.29 38.22,17.15c17.967,6.86 31.932,13.557 41.895,20.09c9.964,6.534 17.069,13.802 21.315,21.805c4.247,8.004 6.37,17.885 6.37,29.645c0,20.58 -8.493,37.24 -25.48,49.98c-16.986,12.74 -38.383,19.11 -64.19,19.11c-18.62,0 -33.728,-1.47 -45.325,-4.41c-11.596,-2.94 -23.438,-7.513 -35.525,-13.72c0.98,-8.493 1.47,-19.436 1.47,-32.83c0,-8.82 -0.326,-18.13 -0.98,-27.93c4.9,-3.593 13.394,-5.39 25.48,-5.39c2.287,20.254 8.575,35.525 18.865,45.815c10.29,10.29 23.929,15.435 40.915,15.435c13.067,0 23.357,-2.94 30.87,-8.82c7.514,-5.88 11.27,-13.393 11.27,-22.54c0,-5.88 -1.388,-10.943 -4.165,-15.19c-2.776,-4.246 -7.921,-8.493 -15.435,-12.74c-7.513,-4.246 -18.62,-9.31 -33.32,-15.19c-18.946,-7.513 -33.483,-14.373 -43.61,-20.58c-10.126,-6.206 -17.476,-13.475 -22.05,-21.805c-4.573,-8.33 -6.86,-19.028 -6.86,-32.095c0,-13.066 4.247,-24.173 12.74,-33.32c8.494,-9.146 19.11,-16.088 31.85,-20.825c12.74,-4.736 24.99,-7.105 36.75,-7.105c14.374,0 27.114,1.389 38.22,4.165c11.107,2.777 21.887,7.105 32.34,12.985c-0.653,9.8 -0.98,17.477 -0.98,23.03c0,10.454 0.654,19.764 1.96,27.93Z" style="fill:#e9e8e4;fill-rule:nonzero;"/><path d="M3460.74,2267.32c-19.6,0 -33.973,-4.981 -43.12,-14.945c-9.146,-9.963 -13.72,-26.051 -13.72,-48.265l0,-132.79c-9.8,-3.266 -21.56,-5.39 -35.28,-6.37c0,-7.513 1.47,-14.7 4.41,-21.56l30.87,0l0,-64.68c12.74,-3.593 24.827,-10.126 36.26,-19.6c3.267,1.634 5.39,3.839 6.37,6.615c0.98,2.777 1.47,9.065 1.47,18.865l0,58.8l63.7,0c0,6.86 -1.47,14.047 -4.41,21.56c-24.173,0.98 -43.936,3.104 -59.29,6.37l0,122.5c0,31.36 9.474,47.04 28.42,47.04c6.534,0 12.332,-0.98 17.395,-2.94c5.064,-1.96 10.045,-4.9 14.945,-8.82c4.247,4.9 6.697,10.29 7.35,16.17c-5.553,6.207 -13.638,11.434 -24.255,15.68c-10.616,4.247 -20.988,6.37 -31.115,6.37Z" style="fill:#e9e8e4;fill-rule:nonzero;"/><path d="M3663.11,2034.08c29.4,0 52.022,8.902 67.865,26.705c15.844,17.804 23.765,45.162 23.765,82.075c0,22.867 -5.063,43.774 -15.19,62.72c-10.126,18.947 -24.5,33.974 -43.12,45.08c-18.62,11.107 -39.853,16.66 -63.7,16.66c-20.906,0 -39.363,-3.021 -55.37,-9.065c-16.006,-6.043 -29.4,-14.128 -40.18,-24.255c3.594,-4.573 6.289,-11.515 8.085,-20.825c1.797,-9.31 2.695,-23.111 2.695,-41.405l0,-190.61c0,-8.493 -0.816,-15.19 -2.45,-20.09c-1.633,-4.9 -5.063,-8.575 -10.29,-11.025c-5.226,-2.45 -13.23,-3.675 -24.01,-3.675c0,-7.513 1.47,-13.556 4.41,-18.13c8.167,0 19.764,-1.796 34.79,-5.39c15.027,-3.593 25.317,-7.35 30.87,-11.27c7.187,2.287 10.78,8.82 10.78,19.6l0,127.89c0,6.207 -0.653,13.23 -1.96,21.07l5.88,-9.8c5.227,-8.82 13.965,-17.068 26.215,-24.745c12.25,-7.676 25.889,-11.515 40.915,-11.515Zm-27.93,210.7c10.78,0 21.56,-2.776 32.34,-8.33c10.78,-5.553 19.927,-15.435 27.44,-29.645c7.514,-14.21 11.27,-33.401 11.27,-57.575c0,-19.6 -2.94,-35.688 -8.82,-48.265c-5.88,-12.576 -12.985,-21.723 -21.315,-27.44c-8.33,-5.716 -16.578,-8.575 -24.745,-8.575c-16.333,0 -30.298,7.677 -41.895,23.03c-11.596,15.354 -17.395,38.874 -17.395,70.56l0,69.09c6.207,5.554 12.659,9.8 19.355,12.74c6.697,2.94 14.619,4.41 23.765,4.41Z" style="fill:#e9e8e4;fill-rule:nonzero;"/><path d="M3885.08,2267.32c-22.213,0 -41.65,-4.818 -58.31,-14.455c-16.66,-9.636 -29.563,-23.275 -38.71,-40.915c-9.146,-17.64 -13.72,-38.056 -13.72,-61.25c0,-21.886 4.737,-41.731 14.21,-59.535c9.474,-17.803 22.622,-31.768 39.445,-41.895c16.824,-10.126 35.852,-15.19 57.085,-15.19c34.3,0 61.332,10.617 81.095,31.85c19.764,21.234 29.645,49.49 29.645,84.77c0,22.214 -4.655,42.14 -13.965,59.78c-9.31,17.64 -22.376,31.524 -39.2,41.65c-16.823,10.127 -36.015,15.19 -57.575,15.19Zm3.92,-23.52c18.947,0 33.32,-7.84 43.12,-23.52c9.8,-15.68 14.7,-36.913 14.7,-63.7c0,-19.6 -3.021,-36.913 -9.065,-51.94c-6.043,-15.026 -14.128,-26.623 -24.255,-34.79c-10.126,-8.166 -21.233,-12.25 -33.32,-12.25c-18.293,0 -32.258,7.514 -41.895,22.54c-9.636,15.027 -14.455,35.117 -14.455,60.27c0,32.667 5.799,58.065 17.395,76.195c11.597,18.13 27.522,27.195 47.775,27.195Z" style="fill:#e9e8e4;fill-rule:nonzero;"/><path d="M4142.82,2038.49c12.414,0 23.684,3.92 33.81,11.76c-2.286,15.027 -3.43,34.3 -3.43,57.82c-8.82,2.94 -18.13,4.41 -27.93,4.41c-0.653,-14.7 -3.021,-24.745 -7.105,-30.135c-4.083,-5.39 -9.718,-8.085 -16.905,-8.085c-5.88,0 -12.086,3.185 -18.62,9.555c-6.533,6.37 -12.005,14.945 -16.415,25.725c-4.41,10.78 -6.615,22.214 -6.615,34.3l0,47.04c0,14.047 1.47,24.745 4.41,32.095c2.94,7.35 7.432,12.414 13.475,15.19c6.044,2.777 14.619,4.492 25.725,5.145c1.634,4.574 2.45,11.597 2.45,21.07c-15.026,-0.98 -35.606,-1.47 -61.74,-1.47c-30.38,0 -51.94,0.49 -64.68,1.47c0,-9.473 0.817,-16.496 2.45,-21.07c13.067,-0.653 21.969,-3.838 26.705,-9.555c4.737,-5.716 7.105,-16.741 7.105,-33.075l0,-97.02c0,-8.493 -0.898,-15.108 -2.695,-19.845c-1.796,-4.736 -5.308,-8.33 -10.535,-10.78c-5.226,-2.45 -13.066,-3.838 -23.52,-4.165c0,-7.513 1.47,-13.556 4.41,-18.13c10.127,-0.653 21.724,-2.613 34.79,-5.88c13.067,-3.266 23.357,-6.86 30.87,-10.78c7.187,2.287 10.78,9.474 10.78,21.56c0,11.107 -0.98,21.479 -2.94,31.115c-1.96,9.637 -3.103,15.272 -3.43,16.905c0.654,-1.96 1.96,-5.88 3.92,-11.76c1.96,-5.88 4.084,-10.453 6.37,-13.72c16.66,-26.46 36.424,-39.69 59.29,-39.69Z" style="fill:#e9e8e4;fill-rule:nonzero;"/><path d="M4439.27,2243.31c1.634,4.9 2.45,11.924 2.45,21.07c-14.046,-0.98 -31.85,-1.47 -53.41,-1.47c-13.393,0 -29.563,0.327 -48.51,0.98c-2.286,0.327 -5.553,0.49 -9.8,0.49c0,-9.473 0.817,-16.496 2.45,-21.07c12.087,0 20.744,-3.103 25.97,-9.31c5.227,-6.206 7.84,-17.313 7.84,-33.32l0,-74.48c0,-21.56 -4.001,-36.913 -12.005,-46.06c-8.003,-9.146 -19.191,-13.72 -33.565,-13.72c-9.146,0 -17.966,2.777 -26.46,8.33c-8.493,5.554 -15.435,14.537 -20.825,26.95c-5.39,12.414 -8.085,27.93 -8.085,46.55l0,52.43c0,16.334 2.45,27.522 7.35,33.565c4.9,6.044 13.72,9.065 26.46,9.065c1.634,4.9 2.45,11.924 2.45,21.07c-27.44,-0.98 -46.876,-1.47 -58.31,-1.47c-24.826,0 -44.263,0.49 -58.31,1.47c0,-9.473 0.817,-16.496 2.45,-21.07c12.74,0 21.56,-3.021 26.46,-9.065c4.9,-6.043 7.35,-17.231 7.35,-33.565l0,-97.02c0,-8.493 -0.898,-15.108 -2.695,-19.845c-1.796,-4.736 -5.308,-8.33 -10.535,-10.78c-5.226,-2.45 -13.066,-3.838 -23.52,-4.165c0,-7.513 1.47,-13.556 4.41,-18.13c10.127,-0.653 21.724,-2.613 34.79,-5.88c13.067,-3.266 23.357,-6.86 30.87,-10.78c7.187,2.287 10.78,9.474 10.78,21.56c0,10.454 -1.143,20.09 -3.43,28.91c0.654,-0.98 1.552,-2.695 2.695,-5.145c1.144,-2.45 2.695,-4.981 4.655,-7.595c6.534,-9.146 16.089,-17.313 28.665,-24.5c12.577,-7.186 26.705,-10.78 42.385,-10.78c20.58,0 37.404,6.37 50.47,19.11c13.067,12.74 19.6,32.994 19.6,60.76l0,84.28c0,16.334 2.287,27.522 6.86,33.565c4.574,6.044 11.924,9.065 22.05,9.065Z" style="fill:#e9e8e4;fill-rule:nonzero;"/></g><g transform="matrix(1,0,0,1,-525.884,-1535.56)"><path d="M2098.65,2366.37c-15.073,0 -26.758,-3.959 -35.055,-11.875c-8.296,-7.917 -12.445,-18.715 -12.445,-32.395c0,-9.5 2.09,-17.734 6.27,-24.7c4.18,-6.967 9.944,-12.287 17.29,-15.96c7.347,-3.674 15.644,-5.51 24.89,-5.51c15.327,0 27.107,4.053 35.34,12.16c8.234,8.106 12.35,18.873 12.35,32.3c0,9.246 -1.995,17.353 -5.985,24.32c-3.99,6.966 -9.658,12.318 -17.005,16.055c-7.346,3.736 -15.896,5.605 -25.65,5.605Zm2.66,-12.16c5.574,0 9.88,-2.724 12.92,-8.17c3.04,-5.447 4.56,-12.54 4.56,-21.28c0,-7.727 -0.981,-14.409 -2.945,-20.045c-1.963,-5.637 -4.591,-9.912 -7.885,-12.825c-3.293,-2.914 -6.903,-4.37 -10.83,-4.37c-5.573,0 -9.848,2.66 -12.825,7.98c-2.976,5.32 -4.465,12.286 -4.465,20.9c0,11.4 1.9,20.551 5.7,27.455c3.8,6.903 9.057,10.355 15.77,10.355Z" style="fill:#e9e8e4;fill-rule:nonzero;"/><path d="M2242.48,2234.32c-0.76,5.32 -1.14,11.146 -1.14,17.48c0,3.166 0.064,5.446 0.19,6.84c-1.9,0.76 -4.496,1.33 -7.79,1.71c-3.293,0.38 -6.46,0.506 -9.5,0.38c0,-6.08 -1.013,-10.83 -3.04,-14.25c-2.026,-3.42 -4.94,-5.13 -8.74,-5.13c-3.8,0 -6.491,1.868 -8.075,5.605c-1.583,3.736 -2.375,10.355 -2.375,19.855l0,12.73l20.9,0c0,5.953 -0.633,10.133 -1.9,12.54c-6.84,0 -13.173,0.823 -19,2.47l0,36.86c0,5.573 0.602,9.88 1.805,12.92c1.204,3.04 3.135,5.225 5.795,6.555c2.66,1.33 6.46,2.185 11.4,2.565c0.887,2.533 1.33,6.46 1.33,11.78c-6.713,-0.38 -16.593,-0.57 -29.64,-0.57c-14.693,0 -25.523,0.19 -32.49,0.57c0,-5.067 0.38,-8.994 1.14,-11.78c3.547,-0.254 6.207,-0.919 7.98,-1.995c1.774,-1.077 3.04,-2.914 3.8,-5.51c0.76,-2.597 1.14,-6.492 1.14,-11.685l0,-40.47c-5.193,-1.394 -10.07,-2.09 -14.63,-2.09c0,-5.574 0.887,-9.627 2.66,-12.16l11.97,0l0,-6.46c0,-9.627 1.964,-17.765 5.89,-24.415c3.927,-6.65 9.215,-11.654 15.865,-15.01c6.65,-3.357 14.155,-5.035 22.515,-5.035c4.814,0 9.342,0.538 13.585,1.615c4.244,1.076 7.695,2.438 10.355,4.085Z" style="fill:#e9e8e4;fill-rule:nonzero;"/><path d="M2072.16,2465.74c-5.76,0 -10.02,-1.48 -12.78,-4.44c-2.76,-2.96 -4.14,-7.84 -4.14,-14.64l0,-26.64c-2.32,-0.96 -5.24,-1.48 -8.76,-1.56c0,-2.96 0.44,-5.48 1.32,-7.56l7.44,0l0,-14.76c2.64,-0.32 5.3,-1.04 7.98,-2.16c2.68,-1.12 4.86,-2.36 6.54,-3.72c1.2,0.48 2,1.2 2.4,2.16c0.4,0.96 0.6,2.72 0.6,5.28l0,13.2l14.76,0c0,2.56 -0.4,5.12 -1.2,7.68c-5.36,0.16 -9.88,0.8 -13.56,1.92l0,24.24c0,4.72 0.48,7.96 1.44,9.72c0.96,1.76 2.56,2.64 4.8,2.64c2.64,0 5.08,-0.68 7.32,-2.04c1.04,1.44 1.64,3.44 1.8,6c-1.6,1.36 -3.9,2.48 -6.9,3.36c-3,0.88 -6.02,1.32 -9.06,1.32Z" style="fill:#e9e8e4;fill-rule:nonzero;"/><path d="M2164.2,2457.58c0.64,1.52 0.96,4 0.96,7.44c-6.96,-0.24 -11.96,-0.36 -15,-0.36c-7.76,0 -13.52,0.12 -17.28,0.36c0,-3.28 0.32,-5.76 0.96,-7.44c2.32,0 4.04,-0.84 5.16,-2.52c1.12,-1.68 1.68,-4.6 1.68,-8.76l0,-12.6c0,-4.8 -0.76,-8.24 -2.28,-10.32c-1.52,-2.08 -3.76,-3.12 -6.72,-3.12c-3.2,0 -5.94,1.7 -8.22,5.1c-2.28,3.4 -3.42,8.1 -3.42,14.1l0,7.68c0,4 0.52,6.74 1.56,8.22c1.04,1.48 2.76,2.22 5.16,2.22c0.48,1.04 0.78,2.12 0.9,3.24c0.12,1.12 0.18,2.52 0.18,4.2c-3.44,-0.24 -8.96,-0.36 -16.56,-0.36c-8.16,0 -14.04,0.12 -17.64,0.36c0,-3.44 0.32,-5.92 0.96,-7.44c3.12,0 5.22,-0.72 6.3,-2.16c1.08,-1.44 1.62,-4.2 1.62,-8.28l0,-49.08c0,-2.96 -0.58,-5.06 -1.74,-6.3c-1.16,-1.24 -3.54,-1.94 -7.14,-2.1c0,-3.04 0.44,-5.4 1.32,-7.08c3.92,0 8.04,-0.42 12.36,-1.26c4.32,-0.84 7.36,-1.74 9.12,-2.7c2.4,0.96 3.6,3.08 3.6,6.36l0,30.24c0,1.76 -0.4,4.16 -1.2,7.2c0.16,-0.24 0.54,-1.02 1.14,-2.34c0.6,-1.32 1.34,-2.5 2.22,-3.54c1.92,-2.08 4.32,-3.82 7.2,-5.22c2.88,-1.4 6.08,-2.1 9.6,-2.1c5.52,0 10.1,1.6 13.74,4.8c3.64,3.2 5.46,8.12 5.46,14.76l0,18.36c0,3.92 0.44,6.64 1.32,8.16c0.88,1.52 2.44,2.28 4.68,2.28Z" style="fill:#e9e8e4;fill-rule:nonzero;"/><path d="M2220.84,2450.98c0.8,0.48 1.5,1.32 2.1,2.52c0.6,1.2 0.94,2.44 1.02,3.72c-3.04,2.88 -6.48,5.02 -10.32,6.42c-3.84,1.4 -8.28,2.1 -13.32,2.1c-9.76,0 -17.06,-2.6 -21.9,-7.8c-4.84,-5.2 -7.26,-12 -7.26,-20.4c0,-5.68 1.16,-10.7 3.48,-15.06c2.32,-4.36 5.6,-7.76 9.84,-10.2c4.24,-2.44 9.16,-3.66 14.76,-3.66c8.24,0 14.42,2.3 18.54,6.9c4.12,4.6 6.34,10.86 6.66,18.78c-0.48,2.32 -1.48,4.24 -3,5.76c-13.76,0 -24.44,0.2 -32.04,0.6c0.72,4.96 2.4,8.86 5.04,11.7c2.64,2.84 6.4,4.26 11.28,4.26c2.8,0 5.56,-0.5 8.28,-1.5c2.72,-1 5,-2.38 6.84,-4.14Zm-21.96,-34.92c-2.88,0 -5.22,1.42 -7.02,4.26c-1.8,2.84 -2.78,7.06 -2.94,12.66l19.08,0c0,-5.36 -0.78,-9.52 -2.34,-12.48c-1.56,-2.96 -3.82,-4.44 -6.78,-4.44Z" style="fill:#e9e8e4;fill-rule:nonzero;"/></g></svg>